# xmcd
#
# Track frame offsets:
#  150
#  18733
#  32428
#  47689
#  59590
#  77268
#  93401
#  108577
#  127066
#  141821
#  160212
#  174858
#  190501
#  209084
#  222779
#  238040
#  249941
#  267619
#  283752
#  298928
#  317417
#  332172
#
# Disc length: 4672 seconds
#
# Revision: 0
# Processed by: cddbd v1.5.2PL0 Copyright (c) Steve Scherf et al.
# Submitted via: Collectorz.com_Music_Collector 6.11
#
DISCID=47123e16
DTITLE=Micheal Bolton - Bolton Sings Sinatra
DYEAR=1900
DGENRE=Ballad
TTITLE0=Michael Bolton - You Go To My Head
TTITLE1=Michael Bolton - Fly Me To The Moon (In Other W
TTITLE2=Michael Bolton - For Once In My Life
TTITLE3=Michael Bolton - Summer Wind
TTITLE4=Michael Bolton - My Funny Valentine
TTITLE5=Michael Bolton - I've Got You Under My Skin
TTITLE6=Michael Bolton - That's Life
TTITLE7=Michael Bolton - The Second Time Around (With N
TTITLE8=Michael Bolton - The Girl From Ipanema
TTITLE9=Michael Bolton - Night And Day
TTITLE10=Michael Bolton - They Can't Take That Away From
TTITLE11=Michael Bolton - New York, New York
TTITLE12=Michael Bolton - You Go To My Head
TTITLE13=Michael Bolton - Fly Me To The Moon (In Other W
TTITLE14=Michael Bolton - For Once In My Life
TTITLE15=Michael Bolton - Summer Wind
TTITLE16=Michael Bolton - My Funny Valentine
TTITLE17=Michael Bolton - I've Got You Under My Skin
TTITLE18=Michael Bolton - That's Life
TTITLE19=Michael Bolton - The Second Time Around (With N
TTITLE20=Michael Bolton - The Girl From Ipanema
TTITLE21=Michael Bolton - Night And Day
EXTD=
EXTT0=
EXTT1=
EXTT2=
EXTT3=
EXTT4=
EXTT5=
EXTT6=
EXTT7=
EXTT8=
EXTT9=
EXTT10=
EXTT11=
EXTT12=
EXTT13=
EXTT14=
EXTT15=
EXTT16=
EXTT17=
EXTT18=
EXTT19=
EXTT20=
EXTT21=
PLAYORDER=
